<svg id="Layer_1" enable-background="new 0 0 512.106 512.106" height="512" viewBox="0 0 512.106 512.106" width="512" xmlns="http://www.w3.org/2000/svg"><g><g><path d="m335.486 89.057c12.407 0 22.5-10.093 22.5-22.5 0-11.855 9.645-21.5 21.5-21.5h66c28.53 1.185 28.508 41.826 0 43h-66c-29.857 1.239-29.834 43.772 0 45h66c15.101 0 29.897-5.221 41.663-14.7 3.226-2.599 3.733-7.32 1.135-10.546-2.599-3.225-7.319-3.733-10.546-1.135-9.241 7.445-20.393 11.381-32.252 11.381h-66c-9.929-.353-9.922-14.65 0-15h66c48.434-2.011 48.397-71.007 0-73h-66c-20.126 0-36.5 16.374-36.5 36.5 0 4.136-3.364 7.5-7.5 7.5s-7.5-3.364-7.5-7.5c0-28.397 23.103-51.5 51.5-51.5h66c34.094-.553 59.761 34.464 49.183 66.793-1.233 3.955.974 8.16 4.928 9.392 3.954 1.234 8.159-.974 9.392-4.928 13.671-41.755-19.476-86.968-63.503-86.257h-66c-36.668 0-66.5 29.832-66.5 66.5 0 12.407 10.094 22.5 22.5 22.5z"/><path d="m504.486 340.087-273.857.01c-4.748-10.47-13.06-20.933-27.034-31.519l-27.911-21.129c-13.178-9.976-28.851-15.432-45.363-15.799l9.645-22.863c9.364.285 18.602-1.399 27.3-4.986l61.021-25.17c18.456-7.616 32.229-22.753 38.125-41.771l65.237-4.398c12.378-.833 21.771-11.583 20.937-23.961v-.001c-.836-12.375-11.576-21.758-23.963-20.935l-64.186 4.328c-.012-.031-.024-.062-.037-.094-13.984-33.895-52.935-50.101-86.833-36.123l-61.01 25.17c-10.544 4.35-19.832 11.373-26.856 20.31-5.862 8.006 5.376 16.868 11.793 9.27 5.433-6.912 12.62-12.345 20.784-15.713l61.009-25.17c24.686-10.18 52.835.313 65.11 23.432l-17.145 1.156c-9.8-12.279-27.745-16.933-42.244-10.714l-61.003 25.167c-9.026 3.714-16.056 10.722-19.789 19.721-3.752 9.002-3.765 18.925-.041 27.934.783 1.9 1.729 3.738 2.814 5.472l-6.67 15.81c-4.227-4.507-7.634-9.783-10.017-15.56-3.066-7.436-4.331-15.25-3.758-23.228.296-4.131-2.812-7.721-6.944-8.018-4.119-.283-7.721 2.812-8.018 6.944-.741 10.316.892 20.417 4.853 30.021 3.915 9.491 9.976 17.941 17.642 24.638l-16.807 39.832c-5.433 1.821-10.064 5.751-12.676 11.019-2.713 5.47-7.571 15.863-12.579 26.708h-25.129c-27.323-.066-41.243 33.528-21.85 52.737.544.546 1.106 1.069 1.683 1.568-16.352 13.809-13.388 40.496 5.359 50.507-13.18 15.501-7.025 40.193 11.435 47.979-15.196 19.965-.547 49.522 24.744 49.388h116.979c22.961 0 43.132-12.167 54.399-30.39h186.637c9.931-.344 9.923-14.659 0-15h-179.862c1.773-5.852 2.727-12.057 2.727-18.48v-44.252c.362-3.469.773-6.891 1.171-10.204 1.579-13.13 3.119-25.932.911-38.635l261.768-.009v111.58h-51.366c-9.931.344-9.923 14.659 0 15h58.866c4.142 0 7.5-3.358 7.5-7.5v-126.58c0-1.989-.79-3.897-2.197-5.303s-3.315-2.196-5.304-2.196zm-390.489-106.927c.079-.169.151-.34.216-.513l21.439-50.821c.779-1.846 2.23-3.279 4.086-4.033 6.061-2.563 12.368 3.83 9.735 9.863l-35.33 83.75-16.18-.239zm108.569-28.396-61.017 25.168c-4.893 2.016-9.986 3.255-15.19 3.698l7.029-16.662c.827-.274 1.643-.578 2.438-.909l61.021-25.17c6.062-2.501 11.299-6.542 15.192-11.713l17.976-1.212c-5.316 12.113-15.01 21.667-27.449 26.8zm107.063-62.235c4.078-.289 7.724 2.845 7.99 6.98.277 4.126-2.853 7.708-6.979 7.986l-125.076 8.433c-1.346.09-2.687-.18-3.876-.781-2.396-1.21-3.933-3.527-4.113-6.197-.278-4.126 2.853-7.71 6.979-7.988zm-207.565 31.532c2.199-5.3 6.334-9.422 11.653-11.611l61.018-25.173c3.461-1.44 7.282-1.932 10.997-1.428l-2.186.147c-12.377.834-21.77 11.583-20.936 23.963.533 7.89 5.251 15.008 12.314 18.576 2.254 1.139 4.679 1.884 7.17 2.214l-40.469 16.693 1.668-3.955c4.822-11.431-.555-24.654-11.985-29.476-5.538-2.337-11.654-2.377-17.221-.113s-9.92 6.561-12.256 12.098l-1.108 2.627c.274-1.546.721-3.075 1.341-4.562zm-6.669 166.079c.342 8.099-5.568 15.1-13.342 16.333 3.631-3.594 6.773-7.881 9.119-12.904l2.892-6.191c.472.813.929 1.759 1.331 2.762zm-62.776 13.211c.004-.008.008-.018.013-.029-.005.009-.009.019-.013.029zm-32.976-1.344c-9.996-9.814-2.76-27.226 11.243-27.13h18.231c-5.381 11.749-9.748 21.372-10.135 22.226-1.405 3.008-1.498 6.364-.29 9.573h-7.806c-.052 0-.104.001-.155.001-4.188-.041-8.116-1.691-11.088-4.67zm11.086 19.669c.052 0 .105.001.158.001h68.62c.052 0 .103-.001.155-.001 20.987 1.059 20.838 30.944-.153 31.798h-1.37c-.332-.011-.666-.017-1-.017h-57.246c-.335 0-.668.006-1 .017h-8.006c-21.006-.862-21.127-30.742-.158-31.798zm8.439 46.798h58.693c20.557 1.712 19.926 30.992-.724 31.783h-57.244c-20.667-.798-21.266-30.079-.725-31.783zm-2.811 62.683c0-8.767 7.133-15.9 15.9-15.9h57.245c8.767 0 15.899 7.133 15.9 15.9 0 8.767-7.133 15.899-15.9 15.899h-57.245c-8.767 0-15.9-7.132-15.9-15.899zm132.879 15.9h-33.248c2.801-4.648 4.414-10.089 4.414-15.9 0-12.638-7.628-23.529-18.521-28.311 9.394-12.059 7.717-30.652-3.45-40.86 8.021-6.126 12.915-16.625 11.841-27.304 4.79 5.682 10.18 10.217 14.985 13.855 3.304 2.5 8.006 1.849 10.507-1.453 2.5-3.303 1.85-8.006-1.453-10.507-16.316-12.351-23.055-24.162-22.532-39.491.095-2.784-.455-6.456-1.676-10.203-.12-.508-.291-.994-.507-1.454-2.562-6.893-7.398-13.681-14.671-15.317-4.904-1.104-10.004 1.396-12.13 5.945l-5.214 11.164c-7.384 15.808-27.3 20.677-35.463 18.746-5.145-1.217-7.799-3-8.868-4.006 1.953-4.299 25.813-56.14 28.783-62.128 1.166-2.351 3.603-3.856 6.255-3.806l41.214.608c13.517.2 26.355 4.616 37.128 12.772l27.908 21.127c13.17 9.977 20.259 19.204 23.786 28.781.12.513.294 1.006.514 1.473 4.049 12.286 2.491 25.237.577 41.151-.422 3.505-.858 7.13-1.242 10.868-.034.334-.046.665-.037.991v44.387c0 26.949-21.936 48.872-48.9 48.872z"/></g></g></svg>