<?xml version="1.0" encoding="iso-8859-1"?>
<!-- Generator: Adobe Illustrator 19.0.0, SVG Export Plug-In . SVG Version: 6.00 Build 0)  -->
<svg version="1.1" id="Capa_1" xmlns="http://www.w3.org/2000/svg" x="0px" y="0px"
     viewBox="0 0 512 512" style="enable-background:new 0 0 512 512;" xml:space="preserve">
<g>
	<g>
		<path d="M437.02,74.98C388.668,26.629,324.38,0,256,0S123.332,26.629,74.98,74.98C26.628,123.331,0,187.62,0,256
			s26.629,132.668,74.98,181.02C123.331,485.372,187.62,512,256,512s132.668-26.629,181.02-74.98
			C485.372,388.669,512,324.38,512,256S485.371,123.332,437.02,74.98z M256,497C123.112,497,15,388.888,15,256S123.112,15,256,15
			s241,108.112,241,241S388.888,497,256,497z"/>
	</g>
</g>
<g>
	<g>
		<path d="M256,124c-72.785,0-132,59.215-132,132c0,29.84,9.716,57.994,28.097,81.42c2.558,3.259,7.271,3.826,10.53,1.271
			c3.259-2.557,3.827-7.271,1.271-10.53C147.609,307.401,139,282.449,139,256c0-64.514,52.486-117,117-117s117,52.486,117,117
			s-52.486,117-117,117c-26.449,0-51.401-8.609-72.16-24.897c-3.259-2.556-7.974-1.989-10.53,1.271
			c-2.557,3.259-1.988,7.974,1.271,10.53C198.006,378.284,226.16,388,256,388c72.785,0,132-59.215,132-132S328.785,124,256,124z"/>
	</g>
</g>
<g>
</g>
<g>
</g>
<g>
</g>
<g>
</g>
<g>
</g>
<g>
</g>
<g>
</g>
<g>
</g>
<g>
</g>
<g>
</g>
<g>
</g>
<g>
</g>
<g>
</g>
<g>
</g>
<g>
</g>
</svg>
