<svg height="496pt" viewBox="0 -3 496 495" width="496pt" xmlns="http://www.w3.org/2000/svg"><path d="m224 214.410156v-34.382812c0-10.34375-6.59375-19.496094-16.40625-22.765625l-55.59375-18.53125v-2.230469h8c17.648438 0 32-14.351562 32-32v-56h-16.640625c-3.902344-27.089844-27.207031-48-55.359375-48s-51.457031 20.910156-55.359375 48h-16.640625v56c0 17.648438 14.351562 32 32 32h8v2.230469l-55.59375 18.53125c-9.8125 3.277343-16.40625 12.421875-16.40625 22.765625v34.382812c-5.679688 1.28125-9.351562 2.1875-9.9375 2.328125l-6.0625 1.515625v271.476563l9.136719-1.300781c.550781-.089844 56.007812-7.929688 102.863281-7.929688 47 0 118.398438 7.871094 119.121094 7.953125l8.878906.984375v-271.183594l-6.0625-1.507812c-.585938-.148438-4.257812-1.054688-9.9375-2.335938zm-104-197.910156c19.3125 0 35.472656 13.769531 39.191406 32h-78.382812c3.71875-18.230469 19.878906-32 39.191406-32zm-56 88v-40h112v40c0 8.824219-7.175781 16-16 16h-80c-8.824219 0-16-7.175781-16-16zm72 32v5.792969c-1.984375 3.0625-7.496094 10.207031-16 10.207031s-14.015625-7.144531-16-10.207031v-5.792969zm-104 43.527344c0-3.449219 2.191406-6.496094 5.472656-7.589844l55.261719-18.417969c4.691406 6.039063 13.65625 14.480469 27.265625 14.480469s22.574219-8.441406 27.265625-14.480469l55.261719 18.417969c3.28125 1.09375 5.472656 4.152344 5.472656 7.589844v30.984375c-7.089844-1.421875-15.230469-2.945313-24-4.375v-22.136719h-16v19.726562c-15.871094-2.160156-32.65625-3.726562-48-3.726562s-32.128906 1.566406-48 3.726562v-19.726562h-16v22.136719c-8.769531 1.4375-16.910156 2.960937-24 4.375zm192 291.59375c-20.863281-2.121094-74.078125-7.121094-112-7.121094-37.023438 0-78.078125 4.609375-96 6.863281v-240.535156c16.9375-3.878906 66.007812-14.328125 104-14.328125s87.0625 10.449219 104 14.328125zm0 0"/><path d="m38.71875 240.605469-6.71875 1.078125v80.207031l9.273438-1.503906c.496093-.0625 49.191406-7.886719 78.726562-7.886719s78.230469 7.824219 78.726562 7.894531l9.273438 1.503907v-80.214844l-6.71875-1.085938c-2.050781-.320312-50.449219-8.097656-81.28125-8.097656s-79.230469 7.777344-81.28125 8.105469zm153.28125 62.582031c-15.9375-2.328125-48.894531-6.6875-72-6.6875s-56.0625 4.359375-72 6.6875v-47.824219c14.457031-2.128906 49.015625-6.863281 72-6.863281s57.542969 4.734375 72 6.863281zm0 0"/><path d="m32 368.5h16v16h-16zm0 0"/><path d="m32 400.5h16v16h-16zm0 0"/><path d="m32 432.5h16v16h-16zm0 0"/><path d="m192 368.5h16v16h-16zm0 0"/><path d="m192 400.5h16v16h-16zm0 0"/><path d="m192 432.5h16v16h-16zm0 0"/><path d="m489.9375 216.738281c-.585938-.140625-4.257812-1.046875-9.9375-2.328125v-34.382812c0-10.34375-6.59375-19.496094-16.40625-22.765625l-55.59375-18.53125v-2.230469h8c17.648438 0 32-14.351562 32-32v-56h-16.640625c-3.902344-27.089844-27.207031-48-55.359375-48s-51.457031 20.910156-55.359375 48h-16.640625v56c0 17.648438 14.351562 32 32 32h8v2.230469l-55.59375 18.53125c-9.8125 3.277343-16.40625 12.421875-16.40625 22.765625v34.382812c-5.679688 1.28125-9.351562 2.1875-9.9375 2.328125l-6.0625 1.515625v271.476563l9.136719-1.300781c.550781-.089844 56.007812-7.929688 102.863281-7.929688 47 0 118.398438 7.871094 119.121094 7.953125l8.878906.984375v-271.183594zm-113.9375-200.238281c19.3125 0 35.472656 13.769531 39.191406 32h-78.382812c3.71875-18.230469 19.878906-32 39.191406-32zm-56 88v-40h112v40c0 8.824219-7.175781 16-16 16h-80c-8.824219 0-16-7.175781-16-16zm72 32v5.792969c-1.984375 3.0625-7.496094 10.207031-16 10.207031s-14.015625-7.144531-16-10.207031v-5.792969zm-104 43.527344c0-3.449219 2.191406-6.496094 5.472656-7.589844l55.261719-18.417969c4.691406 6.039063 13.65625 14.480469 27.265625 14.480469s22.574219-8.441406 27.265625-14.480469l55.261719 18.417969c3.28125 1.09375 5.472656 4.152344 5.472656 7.589844v30.984375c-7.089844-1.421875-15.230469-2.945313-24-4.375v-22.136719h-16v19.726562c-15.871094-2.160156-32.65625-3.726562-48-3.726562s-32.128906 1.566406-48 3.726562v-19.726562h-16v22.136719c-8.769531 1.4375-16.910156 2.960937-24 4.375zm192 291.59375c-20.863281-2.121094-74.078125-7.121094-112-7.121094-37.023438 0-78.078125 4.609375-96 6.863281v-240.535156c16.9375-3.878906 66.007812-14.328125 104-14.328125s87.0625 10.449219 104 14.328125zm0 0"/><path d="m294.71875 240.605469-6.71875 1.078125v80.207031l9.273438-1.503906c.496093-.0625 49.191406-7.886719 78.726562-7.886719s78.230469 7.824219 78.726562 7.894531l9.273438 1.503907v-80.214844l-6.71875-1.085938c-2.050781-.320312-50.449219-8.097656-81.28125-8.097656s-79.230469 7.777344-81.28125 8.105469zm153.28125 62.582031c-15.9375-2.328125-48.894531-6.6875-72-6.6875s-56.0625 4.359375-72 6.6875v-47.824219c14.457031-2.128906 49.015625-6.863281 72-6.863281s57.542969 4.734375 72 6.863281zm0 0"/><path d="m288 368.5h16v16h-16zm0 0"/><path d="m288 400.5h16v16h-16zm0 0"/><path d="m288 432.5h16v16h-16zm0 0"/><path d="m448 368.5h16v16h-16zm0 0"/><path d="m448 400.5h16v16h-16zm0 0"/><path d="m448 432.5h16v16h-16zm0 0"/><path d="m376 328.5c-30.871094 0-56 25.128906-56 56s25.128906 56 56 56 56-25.128906 56-56-25.128906-56-56-56zm-40 56c0-8.136719 2.472656-15.695312 6.664062-22.023438l55.359376 55.359376c-6.328126 4.191406-13.886719 6.664062-22.023438 6.664062-22.054688 0-40-17.945312-40-40zm73.335938 22.023438-55.359376-55.359376c6.328126-4.191406 13.886719-6.664062 22.023438-6.664062 22.054688 0 40 17.945312 40 40 0 8.136719-2.472656 15.695312-6.664062 22.023438zm0 0"/><path d="m120 328.5c-30.871094 0-56 25.128906-56 56s25.128906 56 56 56 56-25.128906 56-56-25.128906-56-56-56zm-40 56c0-8.136719 2.472656-15.695312 6.664062-22.023438l55.359376 55.359376c-6.328126 4.191406-13.886719 6.664062-22.023438 6.664062-22.054688 0-40-17.945312-40-40zm73.335938 22.023438-55.359376-55.359376c6.328126-4.191406 13.886719-6.664062 22.023438-6.664062 22.054688 0 40 17.945312 40 40 0 8.136719-2.472656 15.695312-6.664062 22.023438zm0 0"/></svg>