<svg id="Capa_1" enable-background="new 0 0 512 512" height="512" viewBox="0 0 512 512" width="512" xmlns="http://www.w3.org/2000/svg"><g><path d="m256.069 151.655c.532 0 1.073-.057 1.614-.176l18.481-4.053c4.046-.887 6.607-4.886 5.719-8.932-.887-4.046-4.889-6.604-8.932-5.719l-18.481 4.053c-4.046.887-6.607 4.886-5.719 8.932.769 3.505 3.872 5.895 7.318 5.895z"/><path d="m189.506 145.76c.888-4.046-1.673-8.045-5.719-8.932l-18.482-4.053c-4.043-.888-8.045 1.673-8.932 5.719-.888 4.046 1.673 8.045 5.719 8.932l18.482 4.053c.541.119 1.082.176 1.614.176 3.446 0 6.549-2.39 7.318-5.895z"/><path d="m504.046 318.423c-1.922-10.448-10.002-19.879-22.059-19.304l-1.701-9.188c-1.613-8.701-10.004-14.471-18.699-12.86l-34.487 6.339c-4.206.778-7.866 3.158-10.308 6.7-2.447 3.549-3.365 7.822-2.585 12.031l1.662 8.977-18.713 3.459c-11.101-29.403-36.356-51.049-67.902-58.118-3.322-16.908-14.359-32.246-30.047-41.658 7.408-9.438 13.427-19.672 17.548-30.15h4.192c19.244 0 29.627-17.859 29.627-34.663 0-7.341-1.946-14.204-5.479-19.326-4.394-6.37-11.032-9.877-18.693-9.877h-3.44v-15.707c0-.035-.005-.069-.005-.104 0-.034.003-.067.002-.101-.893-32.668-13.086-60.049-35.26-79.181-19.63-16.939-45.611-26.085-73.112-25.679-27.088.373-52.276 9.959-70.926 26.992-21.068 19.241-32.201 46.395-32.194 78.529v15.25h-2.583c-7.664 0-14.304 3.506-18.7 9.872-3.536 5.121-5.483 11.983-5.483 19.324 0 16.808 10.388 34.672 29.638 34.672h3.153c4.059 10.444 9.944 20.635 17.174 30.025-16.151 9.515-27.484 25.111-30.761 42.249-21.527 6.806-39.908 20.989-52.126 40.365-2.209 3.503-1.161 8.135 2.343 10.344 1.242.784 2.626 1.157 3.993 1.157 2.49 0 4.925-1.239 6.351-3.5 9.312-14.767 22.858-25.944 38.753-32.204 3.01 31.094 29.289 55.484 61.168 55.484l45.065-.025c.269.005.536.025.806.025h13.197c.361 0 .717-.023 1.076-.033l44.285-.024c32.209 0 58.696-24.873 61.264-56.397 23.758 6.595 42.779 23.132 52.034 45.241l-46.907 8.67h-.001l-60.35 11.131c-.002 0-.004 0-.005.001l-121.067 22.349c-9.97 1.857-12.209 11.406-13.406 16.51l-1.18 4.954-87.172 16.086v-48.588c0-5.216.51-10.464 1.517-15.598.797-4.065-1.853-8.006-5.917-8.803-4.066-.8-8.006 1.853-8.803 5.917-1.192 6.082-1.797 12.302-1.797 18.484v51.355l-19.723 3.64c-6.262 1.165-10.521 7.129-9.696 13.574l9.913 77.759c.533 4.157 3.481 8.067 7.337 9.73 1.324.571 2.704.854 4.065.854 2.038 0 4.037-.633 5.749-1.879l47.161-34.84h67.426c.218 10.619-1.195 21.507-5.006 31.159-1.085 2.712-.703 5.769 1.024 8.177 1.767 2.465 4.814 3.999 7.795 3.999.155 0 .31-.004.464-.013l34.78-1.488c2.515-.132 4.917-1.277 6.593-3.142 1.674-1.863 2.522-4.261 2.391-6.667l-1.372-32.027h65.499c6.096 14.115 12.581 26.486 18.141 33.761.029.037.058.074.086.111 2.764 3.48 5.799 4.34 8.124 4.34 1.282 0 2.348-.262 3.032-.489.032-.011.063-.021.095-.033l38.638-13.441c2.895-1 5.206-3.32 6.187-6.212.917-2.704.551-5.591-.999-7.914-1.891-2.841-3.898-6.266-5.962-10.123h32.445c5.329 2.423 12.232 3.769 19.445 3.769 10.14 0 20.869-2.645 28.604-8.637 6.296-4.877 16.045-16.31 10.596-38.077l-7.927-31.683c2.065-1.681 3.907-3.665 5.461-5.924 4.265-6.198 5.866-13.663 4.507-21.022l-1.777-9.612 67.144-12.419c13.767-2.534 18.862-15.317 16.78-26.635zm-181.083-165.192v-17.448h3.44c2.731 0 4.748 1.079 6.345 3.395 1.796 2.604 2.827 6.543 2.827 10.809 0 7.819-3.817 19.404-14.289 19.652 1.098-5.348 1.677-10.976 1.677-16.408zm-223.263-3.252c0-4.263 1.03-8.2 2.826-10.801 1.599-2.316 3.619-3.394 6.357-3.394h2.583v19.531c0 4.664.509 9.458 1.507 14.262-9.703-.956-13.273-12.036-13.273-19.598zm28.361 18.35c-1.058-4.429-1.594-8.808-1.594-13.015v-36.372h77.537c4.142 0 7.5-3.358 7.5-7.5s-3.358-7.5-7.5-7.5h-77.519c.774-60.257 46.129-88.349 88.309-88.931 43.362-.598 90.76 26.997 93.121 88.931h-69.033c-4.142 0-7.5 3.358-7.5 7.5s3.358 7.5 7.5 7.5h69.082v34.289c0 5.018-.603 10.24-1.744 15.097-.104.44-.228.882-.34 1.322h-49.003c-5.218 0-10.649-2.716-16.4-5.592-7.122-3.561-15.188-7.596-24.428-6.918-6.825.503-12.675 4.091-17.838 7.257-4.404 2.701-8.564 5.253-12.118 5.253h-57.695c-.111-.44-.234-.88-.337-1.321zm5.678 16.321h52.354c7.787 0 14.254-3.967 19.96-7.466 4.066-2.494 7.907-4.85 11.097-5.084 5.116-.384 10.702 2.417 16.617 5.375 6.726 3.363 14.35 7.176 23.109 7.176h43.526c-12.043 25.46-37.047 49.126-63.719 58.773-7.563 2.722-13.957 4.151-20.084 4.486-6.104-.334-12.49-1.763-20.043-4.481-16.277-5.888-31.68-16.869-43.907-30.403-.373-.558-.818-1.048-1.31-1.477-7.22-8.259-13.251-17.407-17.6-26.899zm30.645 128.92c-25.617 0-46.458-20.837-46.458-46.448 0-16.263 10.788-32.436 26.751-40.84 5.44 5.647 11.366 10.844 17.635 15.444v29.078c0 16.931 6.078 32.183 15.742 42.759zm60.07-.033-14.919.008c-17.54-.521-32.224-19.874-32.224-42.741v-19.609c4.623 2.469 9.354 4.606 14.155 6.342 9.156 3.295 17.03 5.002 24.776 5.372.12.006.239.009.358.009s.239-.003.358-.009c7.769-.371 15.651-2.079 24.816-5.377 4.966-1.796 9.855-4.004 14.629-6.547v19.818c0 23.148-14.243 42.045-31.949 42.734zm44.359-.024-13.113.007c9.642-10.574 15.703-25.808 15.703-42.716v-29.216c6.286-4.562 12.226-9.699 17.684-15.267 13.687 7.338 26.217 21.952 26.217 40.772 0 25.596-20.854 46.42-46.491 46.42zm160.142-14.105c-.063-.336.066-.612.186-.785.1-.145.321-.396.68-.463l34.487-6.339c.06-.011.119-.016.178-.016.493 0 .96.367 1.052.857l1.66 8.967-36.579 6.761zm-157.899 56.746c1.545-2.244 3.858-3.751 6.514-4.245l.007-.001c.002 0 .003-.001.005-.001l52.984-9.772 2.405 12.957c-8.133 2.673-13.284 11.044-11.714 19.72l.595 3.215-48.139 8.892-4.291-23.171c-.492-2.653.089-5.35 1.634-7.594zm-195.862 98.766c-.214.142-.421.294-.619.457l-42.918 31.705-8.844-69.379 23.1-4.263c.06-.011.12-.02.179-.033l89.303-16.479-3.909 16.406zm26.944-1.256 29.077-21.48c.421.666.882 1.307 1.429 1.891 2.453 2.614 5.875 4.013 9.646 4.013.593 0 1.197-.048 1.805-.118 1.575 4.739 2.885 10.058 3.795 15.695h-45.752zm58.898 42.99c3.007-11.388 3.678-23.637 2.78-35.25.003-.08.012-.159.012-.24 0-.539-.06-1.065-.168-1.572-.797-8.679-2.457-16.953-4.658-24.186l20.334-3.553 1.256 29.309v.001c0 .005.001.009.001.014l1.481 34.575zm-13.378-74.479-2.981.513 8.007-33.6c.001-.004.002-.007.003-.011l2.289-9.606c.336-1.432 1.016-4.332 1.652-5.232l98.308-18.15c-.806 3.367-.911 6.891-.263 10.391l4.511 24.361-13.452 5.043c-.03.011-.058.026-.088.038l-45.506 17.072zm47.627 31.489-1.046-24.414 9.171-1.602c.458-.08.907-.202 1.342-.366l37.963-14.243c2.765 12.247 7.333 26.696 12.632 40.624h-60.062zm94.448 37.217c-5.067-7.433-10.9-19.189-16.328-32.27-.074-.205-.157-.407-.248-.603-6.918-16.759-13.15-35.603-16.257-50.289l12.837-4.812 16.541-3.053c1.417 5.665 3.212 11.813 5.274 18.172l-8.263 2.547c-3.958 1.22-6.178 5.418-4.958 9.376.993 3.223 3.96 5.293 7.165 5.293.731 0 1.476-.108 2.211-.334l8.759-2.699c1.527 4.154 3.129 8.313 4.783 12.409l-7.737 2.389c-3.958 1.222-6.176 5.421-4.953 9.378.994 3.221 3.96 5.289 7.163 5.289.733 0 1.478-.108 2.215-.336l9.216-2.845c3.77 8.397 7.621 16.108 11.267 22.41zm31.692-37.217c-1.029-2.269-2.055-4.599-3.071-6.972-.078-.206-.164-.406-.257-.601-3.44-8.077-6.756-16.636-9.68-25.001-.032-.128-.058-.256-.097-.384-.094-.304-.21-.594-.338-.877-2.757-7.978-5.144-15.744-6.921-22.708l24.546-4.534c3.752 7.64 10.802 13.137 18.99 15.018-.14 3.648-.311 7.1-.469 10.287-.717 14.491-1.305 26.503 2.363 35.771h-25.066zm78.652-1.726c-9.511 7.368-26.467 6.473-33.552 2.639-.011-.006-.022-.012-.033-.018-8.489-4.593-8.525-12.822-7.382-35.925.175-3.522.364-7.362.513-11.457l38.36-7.091 7.324 29.275c2.614 10.441.904 17.826-5.23 22.577zm4.96-72.33c-1.123 1.631-2.566 2.946-4.219 3.909l-49.399 9.778c-6.429.281-12.271-4.204-13.471-10.707l-.004-.007c-.004-.022-.006-.045-.01-.067l-1.924-10.402c-.236-1.304.663-2.61 1.956-2.851l5.084-.942c.002 0 .003-.001.005-.001l59.273-10.951c.002 0 .003-.002.005-.002l.014-.002c1.31-.233 2.62.66 2.86 1.947l1.942 10.503c.633 3.42-.118 6.898-2.112 9.795zm79.507-49.3-74.235 13.73c-3.274-1.559-6.996-2.08-10.658-1.428l-51.96 9.599-.059-.318-2.316-12.48 80.606-14.898c.016-.003.032-.004.049-.007l51.331-9.477c.084-.015.164-.04.247-.058l4.003-.74c6.081-1.117 7.59 6.081 7.742 6.907.15.821 1.301 8.055-4.75 9.17z"/></g></svg>